<?xml version="1.0"?>
<svg xmlns="http://www.w3.org/2000/svg" xmlns:xlink="http://www.w3.org/1999/xlink" xmlns:svgjs="http://svgjs.com/svgjs" version="1.1" width="512" height="512" x="0" y="0" viewBox="0 0 511.334 511.334" style="enable-background:new 0 0 512 512" xml:space="preserve" class=""><g><path xmlns="http://www.w3.org/2000/svg" d="m330.334 96h-11v-32.333c0-35.106-28.561-63.667-63.667-63.667s-63.667 28.561-63.667 63.667v32.333h-11c-11.598 0-21 9.402-21 21v74.667c0 52.751 42.916 95.667 95.667 95.667s95.667-42.916 95.667-95.667v-74.667c0-11.598-9.403-21-21-21zm-96.334-32.333c0-11.947 9.72-21.667 21.667-21.667s21.667 9.72 21.667 21.667v32.333h-43.334z" fill="#99bb94" data-original="#ea8692" style="" class=""/><path xmlns="http://www.w3.org/2000/svg" d="m415.667 320h-320c-52.751 0-95.667 42.916-95.667 95.667s42.916 95.667 95.667 95.667h320c52.751 0 95.667-42.916 95.667-95.667s-42.916-95.667-95.667-95.667z" fill="#75bfa7" data-original="#ffdfba" style="" class=""/><path xmlns="http://www.w3.org/2000/svg" d="m330.334 96h-149.334c-11.598 0-21 9.402-21 21v74.667c0 52.751 42.916 95.667 95.667 95.667s95.667-42.916 95.667-95.667v-74.667c0-11.598-9.403-21-21-21z" fill="#86dd7a" data-original="#fe929f" style="" class=""/><g xmlns="http://www.w3.org/2000/svg" fill="#a07765"><circle cx="127.667" cy="415.667" r="21.333" fill="#ffffff" data-original="#a07765" style="" class=""/><circle cx="213" cy="415.667" r="21.333" fill="#ffffff" data-original="#a07765" style="" class=""/><circle cx="298.333" cy="415.667" r="21.333" fill="#ffffff" data-original="#a07765" style="" class=""/><circle cx="383.667" cy="415.667" r="21.333" fill="#ffffff" data-original="#a07765" style="" class=""/></g></g></svg>
