<?xml version="1.0"?>
<svg xmlns="http://www.w3.org/2000/svg" xmlns:xlink="http://www.w3.org/1999/xlink" xmlns:svgjs="http://svgjs.com/svgjs" version="1.1" width="512" height="512" x="0" y="0" viewBox="0 0 511.226 511.226" style="enable-background:new 0 0 512 512" xml:space="preserve" class=""><g><path xmlns="http://www.w3.org/2000/svg" d="m321.186 374.046c-5.375 0-10.748-2.05-14.849-6.15l-96.67-96.659c-8.201-8.2-8.202-21.496-.001-29.698 8.2-8.201 21.497-8.202 29.699-.001l96.67 96.659c13.272 13.27 3.69 35.849-14.849 35.849z" fill="#a07765" data-original="#a07765" style=""/><path xmlns="http://www.w3.org/2000/svg" d="m429.643 332.393c-93.942-42.388-195.087 28.025-195.087 126.014 0 11.598 9.402 21 21 21h234.67c11.598 0 21-9.402 21-21 0-55.022-31.26-103.307-81.583-126.014z" fill="#65a077" data-original="#e0e0e0" style="" class=""/><path xmlns="http://www.w3.org/2000/svg" d="m372.89 213.404c-40.988 0-74.333 33.346-74.333 74.333s33.346 74.333 74.333 74.333 74.333-33.346 74.333-74.333-33.346-74.333-74.333-74.333z" fill="#ffdfba" data-original="#ffdfba" style=""/><path xmlns="http://www.w3.org/2000/svg" d="m375.131 105.763c.1 0 .021.032-3.051-3.065-16.069-16.179-40.352-40.629-83.615-56.931-156.291-58.929-318.717 77.739-283.639 243.566 8.528 40.318 28.502 77.094 57.768 106.359l11.32 11.311c8.199 8.192 21.495 8.197 29.697-.012 8.198-8.203 8.193-21.498-.009-29.697-16.93-16.922-4.878-46.09 19.091-46.09 7.211 0 13.993 2.81 19.095 7.912 8.201 8.201 21.497 8.201 29.698 0s8.201-21.498 0-29.699c-10.549-10.548-10.566-27.619.004-38.184 10.545-10.552 27.626-10.553 38.173 0 13.27 13.274 35.848 3.697 35.853-14.84.001-5.375-2.047-10.75-6.147-14.852-10.526-10.531-10.526-27.668-.008-38.191 10.532-10.525 27.663-10.526 38.185-.005 8.201 8.202 21.498 8.201 29.699.001 8.201-8.201 8.201-21.496 0-29.698-10.524-10.524-10.522-27.654-.004-38.178 10.532-10.525 27.669-10.524 38.199-.001 8.197 8.192 21.493 8.203 29.7-.009 8.199-8.203 8.194-21.499-.009-29.697z" fill="#99d856" data-original="#99d856" style="" class=""/><path xmlns="http://www.w3.org/2000/svg" d="m288.465 45.767c-112.63-42.466-235.343 16.648-275.333 126.082-4.873 13.336 4.645 27.608 18.865 28.19 29.109 1.191 58.372-.169 87.032-4.042 68.27-9.227 124.964-33.049 179.754-119.323 7.143-11.245 2.128-26.215-10.318-30.907z" fill="#aaef68" data-original="#aaef68" style="" class=""/></g></svg>
